<?xml version="1.0" encoding="utf-8"?>
<!-- Generator: Adobe Illustrator 21.0.0, SVG Export Plug-In . SVG Version: 6.00 Build 0)  -->
<svg version="1.1" id="Layer_1" xmlns="http://www.w3.org/2000/svg" xmlns:xlink="http://www.w3.org/1999/xlink" x="0px" y="0px"
	 viewBox="0 0 507 512" style="enable-background:new 0 0 507 512;" xml:space="preserve">
<path d="M494.9,97.1c-9.5-10.8-23-16.8-38.1-16.8H92.4l-3.7-27.5C84.8,23.2,64.2,0,41.8,0H15C6.7,0,0,6.7,0,15s6.7,15,15,15h26.8
	c4.8,0,15,10.2,17.2,26.8l42.9,322c1.9,14.2,9.2,27.5,20.5,37.4c8.4,7.4,18.4,12.3,28.8,14.3c-4.2,7.8-6.7,16.8-6.7,26.3
	c0,30.4,24.8,55.2,55.2,55.2s55.2-24.7,55.2-55.2c0-9.1-2.2-17.6-6.1-25.2h78.6c-3.9,7.6-6.1,16.1-6.1,25.2
	c0,30.4,24.8,55.2,55.2,55.2s55.2-24.7,55.2-55.2c0-9.1-2.2-17.6-6.1-25.2h39.3c8.3,0,15-6.7,15-15c0-8.3-6.7-15-15-15H162.3
	c-14.7,0-28.7-12.3-30.6-26.8l-3.1-23.5h116.7c0,0,0,0,0,0s0,0,0,0h96.4c0,0,0,0,0,0c0,0,0,0,0,0h83c14.3,0,28.5-5.5,39.8-15.4
	c11.4-9.9,18.6-23.2,20.5-37.4l21.5-161.4C508.6,122.2,504.4,108,494.9,97.1z M224.9,456.8c0,13.9-11.3,25.2-25.2,25.2
	c-13.9,0-25.2-11.3-25.2-25.2c0-13.9,11.3-25.2,25.2-25.2C213.6,431.7,224.9,443,224.9,456.8z M401.7,456.8
	c0,13.9-11.3,25.2-25.2,25.2s-25.2-11.3-25.2-25.2c0-13.9,11.3-25.2,25.2-25.2S401.7,443,401.7,456.8z M472.4,116.9
	c3.7,4.2,5.3,10,4.5,16.3l-9,67.7H365.7l6-90.5h85.1C463.1,110.3,468.6,112.7,472.4,116.9z M259.3,321.3l-6-90.5h80.4l-6,90.5H259.3
	z M251.3,200.8l-6-90.5h96.4l-6,90.5H251.3z M215.2,110.3l6,90.5H108.5l-12.1-90.5H215.2z M112.5,230.8h110.8l6,90.5H124.5
	L112.5,230.8z M424.7,321.3h-67l6-90.5h100.1l-8.5,63.7C453.4,309.1,439.4,321.3,424.7,321.3z"/>
</svg>
